<?xml version="1.0" encoding="UTF-8"?>
<svg id="Layer_1" data-name="Layer 1" xmlns="http://www.w3.org/2000/svg" viewBox="0 0 301.54 40.19">
  <defs>
    <style>
      .cls-1, .cls-2 {
        fill: #231f20;
      }

      .cls-2 {
        fill-rule: evenodd;
      }

      .cls-3 {
        fill: #eb2227;
      }
    </style>
  </defs>
  <path class="cls-2" d="M283.73,20.55l-.08.02-.08.02-.08.02-.09.03-.09.03-.09.03-.1.03-.1.03-.1.03-.1.03-.11.03-.11.03-.11.03-.12.03-.12.03-.12.03-.12.03-.13.03-.13.03-.13.03-.13.03-.14.03-.14.03-.14.03-.15.03-.15.03-.15.03-.15.03-.16.03-.16.03-.16.03-.17.03-.17.03-.16.03-.16.03-.15.03-.15.03-.15.03-.14.03-.14.03-.14.03-.13.03-.13.03-.13.03-.12.03-.12.03-.11.03-.11.03-.11.03-.1.03-.1.03-.1.03-.09.03-.09.03-.09.03-.08.03-.08.03-.07.03-.07.03-.07.03-.06.03-.06.03-.06.03-.05.03-.08.05-.07.05-.07.05-.07.06-.07.06-.07.06-.06.06-.06.06-.06.06-.06.06-.05.06-.05.06-.05.06-.05.06-.04.06-.04.07-.04.07-.04.07-.03.07-.03.07-.03.07-.03.07-.02.07-.02.07-.02.07-.02.07v.08s-.02.08-.02.08v.08s-.01.08-.01.08v.08s0,.08,0,.08v.08s0,.08,0,.08v.08s.01.08.01.08v.08s.02.08.02.08v.08s.03.07.03.07l.02.07.02.07.02.07.02.07.02.07.03.07.03.07.03.07.03.07.03.07.04.07.04.07.04.07.04.06.04.06.05.06.05.06.05.06.05.06.05.06.06.06.06.06.06.06.06.06.06.06.06.05.07.05.07.05.07.05.07.05.07.05.07.04.07.04.07.04.07.04.07.04.08.03.08.03.08.03.08.03.08.03.08.03.08.02.08.02.08.02.09.02.09.02h.09s.09.03.09.03h.09s.09.02.09.02h.09s.09.01.09.01h.09s.1,0,.1,0h.1s.11,0,.11,0h.11s.11,0,.11,0h.11s.11-.02.11-.02h.11s.11-.03.11-.03l.11-.02.11-.02.11-.02.11-.02.11-.02.1-.03.1-.03.1-.03.1-.03.1-.03.1-.04.1-.04.1-.04.1-.04.1-.04.1-.05.1-.05.1-.05.1-.05.1-.06.1-.06.1-.06.1-.06.1-.06.1-.06.07-.05.07-.05.07-.05.07-.05.07-.05.06-.05.06-.06.06-.06.06-.06.06-.06.06-.06.06-.06.05-.06.05-.06.05-.06.05-.06.05-.06.05-.06.04-.06.04-.07.04-.07.04-.07.04-.07.04-.07.03-.07.03-.07.03-.07.03-.07.03-.07.03-.07.02-.07.02-.07.02-.05.02-.05v-.06s.03-.06.03-.06v-.06s.03-.06.03-.06v-.07s.02-.07.02-.07v-.07s.02-.07.02-.07v-.08s.02-.08.02-.08v-.08s.02-.08.02-.08v-.09s.02-.09.02-.09v-.09s.01-.1.01-.1v-.1s.01-.1.01-.1v-.1s.01-.11.01-.11v-.11s0-.11,0-.11v-.12s0-.12,0-.12v-.12s0-.12,0-.12v-.13s0-.13,0-.13v-.13s0-.13,0-.13v-1.2ZM275.12,15.65l-5.84-.99.06-.21.07-.2.07-.2.07-.19.07-.19.08-.19.08-.19.08-.18.09-.18.09-.18.09-.17.09-.17.1-.16.1-.16.1-.16.1-.15.11-.15.11-.15.11-.14.12-.14.12-.14.12-.13.12-.13.13-.13.13-.12.13-.12.13-.12.14-.12.14-.11.14-.11.15-.1.15-.1.15-.1.16-.09.16-.09.17-.09.17-.09.18-.08.18-.08.18-.08.19-.07.19-.07.2-.07.2-.06.21-.06.21-.06.22-.05.22-.05.23-.05.23-.05.23-.04.24-.04.24-.04.25-.03.25-.03.26-.03.26-.02.27-.02.27-.02h.28s.28-.02.28-.02h.28s.29-.01.29-.01h.29s.27,0,.27,0h.26s.26,0,.26,0h.25s.25.01.25.01h.25s.24.02.24.02h.24s.23.03.23.03l.23.02.22.02.22.02.22.02.21.03.21.03.2.03.2.03.19.03.19.03.19.04.18.04.18.04.17.04.17.04.16.05.16.05.16.05.15.05.15.05.14.06.14.06.13.06.13.06.13.06.13.06.12.06.12.06.12.07.12.07.11.07.11.07.11.07.11.07.1.07.1.07.1.07.1.07.09.08.09.08.09.08.09.08.08.08.08.08.08.08.08.08.08.08.07.08.07.09.07.09.06.09.06.09.06.09.06.09.05.09.05.09.05.1.05.1.05.11.05.11.05.12.04.12.04.13.04.13.04.14.04.14.03.15.03.15.03.16.03.16.03.17.03.17.02.18.02.18.02.19.02.19.02.2.02.2v.2s.03.21.03.21v.21s.02.22.02.22v.22s.01.23.01.23v.23s0,.24,0,.24v.24s-.07,7.05-.07,7.05v.19s0,.18,0,.18v.18s0,.18,0,.18v.17s0,.17,0,.17v.17s0,.16,0,.16v.16s.01.16.01.16v.15s.01.15.01.15v.15s.02.15.02.15v.14s.02.14.02.14v.14s.02.13.02.13v.13s.02.13.02.13v.12s.03.12.03.12v.12s.03.12.03.12v.11s.03.11.03.11l.02.11.02.1.02.1.02.1.02.09.02.09.02.09.02.09.02.09.02.09.02.09.02.09.03.09.03.09.03.09.03.09.03.09.03.09.03.09.03.09.03.09.04.1.04.1.04.1.04.1.04.1.04.1.04.1.04.1.04.1.05.1.05.1.05.1.05.1.05.1.05.1.05.1.05.1h-6.37l-.02-.04-.02-.04-.02-.04-.02-.04-.02-.04-.02-.04-.02-.05-.02-.05-.02-.05-.02-.05-.02-.05-.02-.05-.02-.05-.02-.05-.02-.05-.02-.06-.02-.06-.02-.06-.02-.06-.02-.06-.02-.06-.02-.06-.02-.06-.02-.06-.02-.06-.02-.07-.02-.07-.02-.07-.02-.07-.02-.07-.02-.07-.02-.07v-.03s-.02-.03-.02-.03v-.03s-.02-.03-.02-.03v-.03s-.02-.03-.02-.03v-.03s-.02-.03-.02-.03v-.03s-.02-.03-.02-.03v-.03s-.02-.03-.02-.03v-.03s-.02-.02-.02-.02v-.02s-.01-.02-.01-.02v-.02s-.01-.02-.01-.02v-.02s-.01-.02-.01-.02v-.02s-.01-.02-.01-.02v-.02s-.01-.02-.01-.02v-.02s-.01-.02-.01-.02h0s0-.03,0-.03h0s0-.03,0-.03h0s0-.02,0-.02l-.1.09-.1.09-.1.09-.1.09-.11.09-.11.09-.11.08-.11.08-.11.08-.11.08-.11.08-.11.08-.11.08-.11.07-.11.07-.11.07-.11.07-.11.07-.11.07-.11.07-.11.06-.11.06-.11.06-.11.06-.11.06-.11.06-.12.06-.11.05-.12.05-.12.05-.12.05-.12.05-.12.05-.12.05-.12.04-.12.04-.12.04-.12.04-.12.04-.12.04-.12.03-.12.03-.12.03-.12.03-.12.03-.12.03-.13.03-.12.02-.13.02-.13.02-.13.02-.13.02-.13.02h-.13s-.13.03-.13.03h-.13s-.13.02-.13.02h-.13s-.13.02-.13.02h-.13s-.13.01-.13.01h-.13s-.13,0-.13,0h-.13s-.23,0-.23,0h-.23s-.23-.01-.23-.01h-.22s-.22-.03-.22-.03l-.22-.02-.21-.02-.21-.03-.21-.03-.2-.04-.2-.04-.2-.04-.2-.05-.19-.05-.19-.05-.19-.06-.18-.06-.18-.07-.18-.07-.17-.07-.17-.08-.17-.08-.17-.08-.16-.09-.16-.09-.16-.1-.15-.1-.15-.1-.15-.11-.14-.11-.14-.11-.14-.12-.13-.12-.13-.12-.13-.12-.12-.13-.12-.13-.11-.13-.11-.13-.1-.13-.1-.14-.1-.14-.09-.14-.09-.14-.08-.14-.08-.15-.07-.15-.07-.15-.07-.15-.06-.15-.06-.16-.05-.16-.05-.16-.04-.16-.04-.16-.04-.17-.03-.17-.03-.17-.02-.17-.02-.17v-.18s-.03-.18-.03-.18v-.18s0-.18,0-.18v-.12s0-.12,0-.12v-.12s.01-.12.01-.12v-.12s.02-.12.02-.12v-.11s.03-.11.03-.11l.02-.11.02-.11.02-.11.02-.11.02-.11.03-.11.03-.11.03-.11.03-.11.03-.11.04-.11.04-.11.04-.1.04-.1.04-.1.05-.1.05-.1.05-.1.05-.1.05-.1.05-.1.06-.1.06-.1.06-.09.06-.09.06-.09.07-.09.07-.09.07-.09.07-.09.07-.09.07-.08.07-.08.08-.08.08-.08.08-.08.08-.08.08-.08.08-.07.09-.07.09-.07.09-.07.09-.07.09-.07.09-.07.09-.06.1-.06.1-.06.1-.06.1-.06.1-.06.1-.06.11-.05.11-.05.11-.05.11-.05.11-.05.12-.05.12-.05.12-.05.12-.05.13-.05.13-.05.13-.05.14-.05.14-.05.14-.05.15-.05.15-.05.15-.05.16-.04.16-.04.16-.04.17-.04.17-.04.17-.04.17-.04.18-.04.18-.04.18-.04.19-.04.19-.04.19-.04.2-.04.2-.04.2-.04.2-.04.21-.04.28-.05.27-.05.27-.05.26-.05.26-.05.25-.05.25-.05.24-.05.24-.05.23-.05.23-.05.22-.05.21-.05.21-.05.2-.05.2-.05.19-.05.19-.05.18-.05.18-.05.17-.05.17-.05.16-.04.15-.05.15-.04.14-.04.14-.04.13-.04.13-.04.12-.04.12-.04.11-.04v-.71s0-.11,0-.11v-.1s-.01-.1-.01-.1v-.1s-.02-.1-.02-.1v-.1s-.03-.09-.03-.09l-.02-.09-.02-.09-.02-.09-.02-.09-.02-.08-.02-.08-.03-.08-.03-.08-.03-.08-.03-.07-.03-.07-.03-.07-.04-.07-.04-.07-.04-.07-.04-.06-.04-.06-.05-.06-.05-.06-.05-.05-.05-.05-.05-.05-.05-.05-.06-.05-.06-.05-.06-.04-.07-.04-.07-.04-.07-.04-.07-.04-.08-.04-.08-.03-.08-.03-.09-.03-.09-.03-.09-.03-.1-.03-.1-.03-.1-.03-.11-.02-.11-.02-.11-.02-.12-.02-.12-.02-.12-.02h-.13s-.13-.03-.13-.03h-.13s-.14-.02-.14-.02h-.14s-.14-.02-.14-.02h-.14s-.15-.01-.15-.01h-.15s-.15,0-.15,0h-.16s-.11,0-.11,0h-.11s-.1,0-.1,0h-.1s-.1.01-.1.01h-.1s-.1.01-.1.01h-.1s-.09.02-.09.02h-.09s-.09.02-.09.02h-.09s-.09.03-.09.03l-.09.02-.09.02-.08.02-.08.02-.08.02-.08.02-.08.02-.08.03-.08.03-.07.03-.07.03-.07.03-.07.03-.07.03-.07.03-.07.04-.06.04-.06.04-.06.04-.06.04-.06.04-.06.04-.06.05-.06.05-.06.05-.06.05-.05.05-.05.06-.05.06-.05.06-.05.06-.05.06-.05.06-.05.07-.05.07-.05.07-.05.07-.05.07-.05.08-.05.08-.04.08-.04.08-.04.08-.04.09-.04.09-.04.09-.04.09-.04.09-.04.09-.04.1-.04.1Z"/>
  <rect class="cls-1" x="256.83" y="8.69" width="6.43" height="22.82"/>
  <polygon class="cls-2" points="215.09 8.69 221.03 8.69 221.03 11.8 221.23 11.57 221.43 11.36 221.63 11.15 221.84 10.95 222.05 10.75 222.26 10.56 222.48 10.38 222.69 10.21 222.91 10.04 223.13 9.88 223.36 9.73 223.58 9.58 223.81 9.45 224.04 9.31 224.28 9.19 224.51 9.07 224.75 8.96 224.99 8.86 225.24 8.76 225.48 8.68 225.73 8.59 225.98 8.52 226.23 8.45 226.49 8.39 226.74 8.34 227 8.29 227.26 8.25 227.53 8.22 227.8 8.2 228.06 8.18 228.34 8.17 228.61 8.17 228.75 8.17 228.9 8.17 229.04 8.17 229.18 8.18 229.32 8.19 229.46 8.2 229.6 8.21 229.74 8.22 229.87 8.24 230.01 8.25 230.14 8.27 230.27 8.29 230.4 8.31 230.53 8.34 230.66 8.36 230.79 8.39 230.92 8.42 231.04 8.45 231.16 8.48 231.29 8.52 231.41 8.55 231.53 8.59 231.65 8.63 231.76 8.67 231.88 8.72 231.99 8.76 232.11 8.81 232.22 8.86 232.33 8.91 232.44 8.96 232.55 9.01 232.66 9.07 232.77 9.13 232.87 9.18 232.98 9.25 233.08 9.31 233.18 9.37 233.28 9.44 233.38 9.51 233.48 9.58 233.58 9.65 233.67 9.72 233.77 9.8 233.86 9.87 233.96 9.95 234.05 10.03 234.14 10.12 234.23 10.2 234.31 10.29 234.4 10.38 234.48 10.46 234.57 10.56 234.65 10.65 234.73 10.75 234.81 10.84 234.89 10.94 234.97 11.04 235.05 11.14 235.12 11.25 235.2 11.35 235.27 11.46 235.34 11.57 235.41 11.68 235.48 11.8 235.58 11.68 235.68 11.57 235.78 11.46 235.88 11.35 235.99 11.25 236.09 11.14 236.19 11.04 236.3 10.94 236.4 10.84 236.5 10.75 236.61 10.65 236.72 10.56 236.82 10.46 236.93 10.38 237.04 10.29 237.14 10.2 237.25 10.12 237.36 10.03 237.47 9.95 237.58 9.87 237.69 9.8 237.8 9.72 237.91 9.65 238.02 9.58 238.14 9.51 238.25 9.44 238.36 9.37 238.48 9.31 238.59 9.25 238.71 9.18 238.82 9.13 238.94 9.07 239.05 9.01 239.17 8.96 239.29 8.91 239.4 8.86 239.52 8.81 239.64 8.76 239.76 8.72 239.88 8.67 240 8.63 240.12 8.59 240.24 8.55 240.36 8.52 240.48 8.48 240.61 8.45 240.73 8.42 240.85 8.39 240.98 8.36 241.1 8.34 241.23 8.31 241.35 8.29 241.48 8.27 241.61 8.25 241.73 8.24 241.86 8.22 241.99 8.21 242.12 8.2 242.25 8.19 242.38 8.18 242.51 8.17 242.64 8.17 242.77 8.17 242.9 8.17 243.07 8.17 243.23 8.17 243.39 8.17 243.56 8.18 243.72 8.19 243.87 8.2 244.03 8.21 244.19 8.23 244.34 8.25 244.49 8.27 244.64 8.29 244.79 8.31 244.94 8.34 245.08 8.36 245.23 8.39 245.37 8.42 245.51 8.46 245.65 8.49 245.79 8.53 245.93 8.57 246.06 8.61 246.19 8.65 246.33 8.7 246.45 8.74 246.58 8.79 246.71 8.84 246.83 8.9 246.96 8.95 247.08 9.01 247.2 9.07 247.32 9.13 247.43 9.19 247.55 9.26 247.66 9.32 247.77 9.39 247.88 9.46 247.99 9.53 248.1 9.61 248.2 9.68 248.3 9.76 248.4 9.84 248.5 9.92 248.6 10 248.69 10.09 248.78 10.18 248.88 10.27 248.96 10.36 249.05 10.45 249.14 10.54 249.22 10.64 249.3 10.74 249.38 10.84 249.46 10.94 249.54 11.05 249.61 11.15 249.69 11.26 249.76 11.37 249.83 11.48 249.89 11.59 249.96 11.71 250.02 11.82 250.08 11.94 250.14 12.06 250.2 12.19 250.24 12.28 250.28 12.38 250.32 12.48 250.36 12.58 250.39 12.69 250.43 12.8 250.46 12.91 250.49 13.03 250.52 13.15 250.55 13.28 250.58 13.4 250.61 13.54 250.63 13.67 250.66 13.81 250.68 13.95 250.7 14.1 250.72 14.25 250.74 14.4 250.76 14.56 250.77 14.72 250.79 14.88 250.8 15.05 250.81 15.22 250.82 15.4 250.83 15.57 250.84 15.76 250.85 15.94 250.86 16.13 250.86 16.32 250.86 16.52 250.86 16.71 250.87 16.92 250.87 31.51 244.43 31.51 244.43 18.47 244.43 18.26 244.43 18.05 244.43 17.85 244.42 17.65 244.42 17.46 244.41 17.27 244.4 17.09 244.39 16.92 244.38 16.74 244.37 16.58 244.35 16.41 244.34 16.26 244.32 16.1 244.31 15.95 244.29 15.81 244.27 15.67 244.25 15.53 244.22 15.4 244.2 15.28 244.17 15.16 244.15 15.04 244.12 14.93 244.09 14.83 244.06 14.72 244.03 14.63 243.99 14.53 243.96 14.45 243.92 14.36 243.89 14.28 243.85 14.21 243.81 14.14 243.77 14.08 243.71 14 243.65 13.92 243.59 13.85 243.53 13.78 243.47 13.71 243.4 13.64 243.33 13.58 243.26 13.51 243.19 13.46 243.12 13.4 243.04 13.34 242.96 13.29 242.88 13.24 242.8 13.2 242.72 13.15 242.64 13.11 242.55 13.07 242.46 13.04 242.37 13 242.28 12.97 242.18 12.94 242.09 12.91 241.99 12.89 241.89 12.87 241.79 12.85 241.68 12.83 241.58 12.82 241.47 12.81 241.36 12.8 241.25 12.79 241.14 12.79 241.02 12.79 240.94 12.79 240.85 12.79 240.77 12.79 240.69 12.8 240.6 12.81 240.52 12.81 240.44 12.82 240.35 12.84 240.27 12.85 240.19 12.86 240.11 12.88 240.03 12.9 239.95 12.91 239.87 12.93 239.79 12.96 239.71 12.98 239.63 13.01 239.55 13.03 239.47 13.06 239.39 13.09 239.31 13.12 239.24 13.15 239.16 13.19 239.08 13.22 239.01 13.26 238.93 13.3 238.85 13.34 238.78 13.38 238.7 13.42 238.62 13.47 238.55 13.52 238.48 13.56 238.4 13.61 238.33 13.66 238.26 13.72 238.19 13.77 238.12 13.82 238.05 13.88 237.99 13.94 237.92 14 237.86 14.06 237.8 14.12 237.74 14.18 237.68 14.24 237.62 14.31 237.56 14.38 237.51 14.45 237.45 14.52 237.4 14.59 237.35 14.66 237.3 14.73 237.25 14.81 237.2 14.89 237.16 14.97 237.11 15.05 237.07 15.13 237.03 15.21 236.98 15.3 236.94 15.38 236.9 15.47 236.87 15.56 236.83 15.65 236.8 15.74 236.76 15.83 236.73 15.93 236.7 16.03 236.67 16.13 236.64 16.23 236.61 16.34 236.58 16.45 236.56 16.57 236.53 16.69 236.51 16.81 236.48 16.93 236.46 17.06 236.44 17.2 236.42 17.33 236.4 17.47 236.38 17.61 236.37 17.76 236.35 17.91 236.33 18.06 236.32 18.22 236.31 18.37 236.29 18.54 236.28 18.7 236.27 18.87 236.26 19.05 236.26 19.22 236.25 19.4 236.24 19.58 236.24 19.77 236.24 19.96 236.23 20.15 236.23 20.35 236.23 20.55 236.23 31.51 229.8 31.51 229.8 19 229.8 18.79 229.8 18.59 229.79 18.4 229.79 18.2 229.79 18.02 229.79 17.83 229.78 17.66 229.78 17.48 229.77 17.31 229.76 17.15 229.76 16.99 229.75 16.83 229.74 16.68 229.73 16.54 229.72 16.4 229.71 16.26 229.7 16.13 229.69 16 229.67 15.88 229.66 15.76 229.65 15.65 229.63 15.54 229.62 15.43 229.6 15.33 229.59 15.24 229.57 15.15 229.55 15.06 229.53 14.98 229.51 14.9 229.49 14.83 229.47 14.76 229.45 14.7 229.43 14.64 229.41 14.58 229.39 14.52 229.36 14.47 229.34 14.41 229.31 14.36 229.29 14.3 229.26 14.25 229.23 14.2 229.2 14.15 229.17 14.1 229.14 14.05 229.11 14 229.08 13.95 229.05 13.9 229.02 13.86 228.98 13.81 228.95 13.77 228.91 13.73 228.88 13.69 228.84 13.65 228.8 13.61 228.76 13.57 228.73 13.53 228.69 13.49 228.65 13.46 228.61 13.42 228.56 13.39 228.52 13.36 228.48 13.32 228.43 13.29 228.39 13.26 228.34 13.23 228.3 13.21 228.25 13.18 228.2 13.15 228.15 13.13 228.1 13.1 228.05 13.08 228 13.06 227.94 13.03 227.89 13.01 227.83 12.99 227.78 12.97 227.72 12.96 227.66 12.94 227.6 12.92 227.54 12.91 227.48 12.89 227.41 12.88 227.35 12.87 227.29 12.85 227.22 12.84 227.15 12.83 227.09 12.83 227.02 12.82 226.95 12.81 226.88 12.8 226.8 12.8 226.73 12.79 226.66 12.79 226.58 12.79 226.51 12.79 226.43 12.79 226.34 12.79 226.24 12.79 226.15 12.79 226.06 12.8 225.97 12.81 225.88 12.81 225.79 12.82 225.7 12.83 225.61 12.85 225.53 12.86 225.44 12.88 225.35 12.89 225.27 12.91 225.18 12.93 225.1 12.95 225.02 12.97 224.93 13 224.85 13.02 224.77 13.05 224.69 13.08 224.6 13.11 224.52 13.14 224.45 13.18 224.37 13.21 224.29 13.25 224.21 13.29 224.13 13.32 224.06 13.36 223.98 13.41 223.9 13.45 223.83 13.5 223.75 13.54 223.68 13.59 223.61 13.64 223.54 13.69 223.47 13.74 223.4 13.79 223.33 13.85 223.26 13.9 223.2 13.96 223.14 14.02 223.07 14.08 223.01 14.14 222.95 14.2 222.89 14.26 222.84 14.33 222.78 14.39 222.73 14.46 222.68 14.53 222.62 14.6 222.57 14.67 222.53 14.74 222.48 14.82 222.43 14.89 222.39 14.97 222.34 15.05 222.3 15.12 222.26 15.2 222.22 15.29 222.18 15.37 222.15 15.45 222.11 15.54 222.08 15.63 222.04 15.71 222.01 15.81 221.98 15.9 221.95 16 221.92 16.1 221.89 16.2 221.87 16.31 221.84 16.42 221.82 16.54 221.79 16.66 221.77 16.78 221.75 16.91 221.73 17.04 221.71 17.17 221.69 17.31 221.67 17.45 221.66 17.6 221.64 17.75 221.63 17.9 221.61 18.05 221.6 18.21 221.59 18.38 221.58 18.54 221.57 18.72 221.56 18.89 221.55 19.07 221.54 19.25 221.54 19.43 221.53 19.62 221.53 19.82 221.53 20.01 221.53 20.21 221.53 20.42 221.53 31.51 215.09 31.51 215.09 8.69"/>
  <path class="cls-2" d="M202.91,20.55l-.08.02-.08.02-.08.02-.09.03-.09.03-.09.03-.1.03-.1.03-.1.03-.1.03-.11.03-.11.03-.11.03-.12.03-.12.03-.12.03-.12.03-.13.03-.13.03-.13.03-.14.03-.14.03-.14.03-.14.03-.15.03-.15.03-.15.03-.15.03-.16.03-.16.03-.16.03-.17.03-.17.03-.16.03-.16.03-.15.03-.15.03-.15.03-.14.03-.14.03-.14.03-.13.03-.13.03-.13.03-.12.03-.12.03-.12.03-.11.03-.11.03-.1.03-.1.03-.1.03-.09.03-.09.03-.09.03-.08.03-.08.03-.08.03-.07.03-.07.03-.06.03-.06.03-.06.03-.05.03-.08.05-.07.05-.07.05-.07.06-.07.06-.07.06-.06.06-.06.06-.06.06-.06.06-.05.06-.05.06-.05.06-.05.06-.04.06-.04.07-.04.07-.04.07-.03.07-.03.07-.03.07-.03.07-.02.07-.02.07-.02.07-.02.07v.08s-.02.08-.02.08v.08s-.01.08-.01.08v.08s0,.08,0,.08v.08s0,.08,0,.08v.08s.01.08.01.08v.08s.02.08.02.08v.08s.03.07.03.07l.02.07.02.07.02.07.02.07.02.07.03.07.03.07.03.07.03.07.03.07.04.07.04.07.04.07.04.06.04.06.05.06.05.06.05.06.05.06.05.06.06.06.06.06.06.06.06.06.06.06.06.05.07.05.07.05.07.05.07.05.07.05.07.04.07.04.07.04.07.04.08.04.08.03.08.03.08.03.08.03.08.03.08.03.08.02.08.02.08.02.09.02.09.02h.09s.09.03.09.03h.09s.09.02.09.02h.09s.09.01.09.01h.09s.1,0,.1,0h.1s.11,0,.11,0h.11s.11,0,.11,0h.11s.11-.02.11-.02h.11s.11-.03.11-.03l.11-.02.11-.02.11-.02.11-.02.11-.02.1-.03.1-.03.1-.03.1-.03.1-.03.1-.04.1-.04.1-.04.1-.04.1-.04.1-.05.1-.05.1-.05.1-.05.1-.06.1-.06.1-.06.1-.06.1-.06.1-.06.07-.05.07-.05.07-.05.07-.05.07-.05.06-.05.06-.06.06-.06.06-.06.06-.06.06-.06.06-.06.05-.06.05-.06.05-.06.05-.06.05-.06.05-.06.04-.06.04-.07.04-.07.04-.07.04-.07.04-.07.03-.07.03-.07.03-.07.03-.07.03-.07.03-.07.03-.07.02-.07.02-.05.02-.05v-.06s.03-.06.03-.06v-.06s.03-.06.03-.06v-.07s.02-.07.02-.07v-.07s.02-.07.02-.07v-.08s.02-.08.02-.08v-.08s.02-.08.02-.08v-.09s.02-.09.02-.09v-.09s.01-.1.01-.1v-.1s.01-.1.01-.1v-.1s.01-.11.01-.11v-.11s0-.11,0-.11v-.12s0-.12,0-.12v-.12s0-.12,0-.12v-.13s0-.13,0-.13v-.13s0-1.34,0-1.34ZM194.3,15.65l-5.84-.99.06-.21.07-.2.07-.2.07-.19.07-.19.08-.19.08-.19.08-.18.09-.18.09-.18.09-.17.09-.17.1-.16.1-.16.1-.16.1-.15.11-.15.11-.15.11-.14.12-.14.12-.14.12-.13.12-.13.13-.13.13-.12.13-.12.13-.12.14-.12.14-.11.14-.11.15-.1.15-.1.15-.1.16-.09.16-.09.17-.09.17-.09.18-.08.18-.08.18-.08.19-.07.19-.07.2-.07.2-.06.21-.06.21-.06.22-.05.22-.05.23-.05.23-.05.23-.04.24-.04.24-.04.25-.03.25-.03.26-.03.26-.02.27-.02.27-.02h.28s.28-.02.28-.02h.28s.29-.01.29-.01h.29s.27,0,.27,0h.26s.26,0,.26,0h.25s.25.01.25.01h.25s.24.02.24.02h.24s.23.03.23.03l.23.02.22.02.22.02.22.02.21.03.21.03.2.03.2.03.19.03.19.03.19.04.18.04.18.04.17.04.17.04.16.05.16.05.16.05.15.05.15.05.14.06.14.06.13.06.13.06.13.06.13.06.12.06.12.06.12.07.12.07.11.07.11.07.11.07.11.07.1.07.1.07.1.07.1.07.09.08.09.08.09.08.09.08.08.08.08.08.08.08.08.08.07.08.07.08.07.09.07.09.06.09.06.09.06.09.06.09.05.09.05.09.05.1.05.1.05.11.05.11.04.12.04.12.04.13.04.13.04.14.04.14.03.15.03.15.03.16.03.16.03.17.03.17.02.18.02.18.02.19.02.19.02.2.02.2v.2s.03.21.03.21v.21s.02.22.02.22v.22s.01.23.01.23v.23s0,.24,0,.24v.24s-.07,7.05-.07,7.05v.19s0,.18,0,.18v.18s0,.18,0,.18v.17s0,.17,0,.17v.17s0,.16,0,.16v.16s.01.16.01.16v.15s.01.15.01.15v.15s.02.15.02.15v.14s.02.14.02.14v.14s.02.13.02.13v.13s.02.13.02.13v.12s.03.12.03.12v.12s.03.12.03.12v.11s.03.11.03.11l.02.11.02.1.02.1.02.1.02.09.02.09.02.09.02.09.02.09.02.09.02.09.03.09.03.09.03.09.03.09.03.09.03.09.03.09.03.09.03.09.03.09.04.1.04.1.04.1.04.1.04.1.04.1.04.1.04.1.04.1.05.1.05.1.05.1.05.1.05.1.05.1.05.1.05.1h-6.37l-.02-.04-.02-.04-.02-.04-.02-.04-.02-.04-.02-.04-.02-.05-.02-.05-.02-.05-.02-.05-.02-.05-.02-.05-.02-.05-.02-.05-.02-.05-.02-.06-.02-.06-.02-.06-.02-.06-.02-.06-.02-.06-.02-.06-.02-.06-.02-.06-.02-.06-.02-.07-.02-.07-.02-.07-.02-.07-.02-.07-.02-.07-.02-.07v-.03s-.02-.03-.02-.03v-.03s-.02-.03-.02-.03v-.03s-.02-.03-.02-.03v-.03s-.02-.03-.02-.03v-.03s-.02-.03-.02-.03v-.03s-.02-.03-.02-.03v-.03s-.02-.02-.02-.02v-.02s-.01-.02-.01-.02v-.02s-.01-.02-.01-.02v-.02s-.01-.02-.01-.02v-.02s-.01-.02-.01-.02v-.02s-.01-.02-.01-.02v-.02s-.01-.02-.01-.02h0s0-.03,0-.03h0s0-.03,0-.03h0s0-.02,0-.02l-.1.09-.1.09-.1.09-.1.09-.11.09-.11.09-.11.08-.11.08-.11.08-.11.08-.11.08-.11.08-.11.08-.11.07-.11.07-.11.07-.11.07-.11.07-.11.07-.11.07-.11.06-.11.06-.11.06-.11.06-.11.06-.11.06-.11.06-.11.05-.12.05-.12.05-.12.05-.12.05-.12.05-.12.05-.12.04-.12.04-.12.04-.12.04-.12.04-.12.04-.12.03-.12.03-.12.03-.12.03-.12.03-.12.03-.12.03-.12.02-.13.02-.13.02-.13.02-.13.02-.13.02h-.13s-.13.03-.13.03h-.13s-.13.02-.13.02h-.13s-.13.02-.13.02h-.13s-.13.01-.13.01h-.13s-.13,0-.13,0h-.13s-.23,0-.23,0h-.23s-.23-.01-.23-.01h-.22s-.22-.03-.22-.03l-.22-.02-.21-.02-.21-.03-.21-.03-.21-.04-.2-.04-.2-.04-.2-.05-.19-.05-.19-.05-.19-.06-.18-.06-.18-.07-.18-.07-.17-.07-.17-.08-.17-.08-.16-.08-.16-.09-.16-.09-.16-.1-.15-.1-.15-.1-.15-.11-.14-.11-.14-.11-.14-.12-.13-.12-.13-.12-.13-.12-.12-.13-.12-.13-.11-.13-.11-.13-.1-.13-.1-.14-.1-.14-.09-.14-.09-.14-.08-.14-.08-.15-.07-.15-.07-.15-.07-.15-.06-.15-.06-.16-.05-.16-.05-.16-.04-.16-.04-.16-.04-.17-.03-.17-.03-.17-.02-.17-.02-.17v-.18s-.03-.18-.03-.18v-.18s0-.18,0-.18v-.12s0-.12,0-.12v-.12s.01-.12.01-.12v-.12s.02-.12.02-.12v-.11s.03-.11.03-.11l.02-.11.02-.11.02-.11.02-.11.02-.11.03-.11.03-.11.03-.11.03-.11.03-.11.04-.11.04-.11.04-.1.04-.1.04-.1.05-.1.05-.1.05-.1.05-.1.05-.1.06-.1.06-.1.06-.1.06-.09.06-.09.06-.09.07-.09.07-.09.07-.09.07-.09.07-.09.07-.08.07-.08.08-.08.08-.08.08-.08.08-.08.08-.08.08-.07.09-.07.09-.07.09-.07.09-.07.09-.07.09-.07.09-.06.1-.06.1-.06.1-.06.1-.06.1-.06.1-.06.11-.05.11-.05.11-.05.11-.05.11-.05.12-.05.12-.05.12-.05.12-.05.13-.05.13-.05.13-.05.14-.05.14-.05.14-.05.15-.05.15-.05.15-.05.16-.04.16-.04.16-.04.17-.04.17-.04.17-.04.17-.04.18-.04.18-.04.18-.04.19-.04.19-.04.19-.04.2-.04.2-.04.2-.04.2-.04.21-.04.28-.05.27-.05.27-.05.26-.05.26-.05.25-.05.25-.05.24-.05.24-.05.23-.05.23-.05.22-.05.21-.05.21-.05.2-.05.2-.05.19-.05.19-.05.18-.05.18-.05.17-.05.17-.05.16-.04.15-.05.15-.04.14-.04.14-.04.13-.04.13-.04.12-.04.12-.04.11-.04v-.71s0-.11,0-.11v-.1s-.01-.1-.01-.1v-.1s-.02-.1-.02-.1v-.1s-.03-.09-.03-.09v-.09s-.03-.09-.03-.09l-.02-.09-.02-.09-.02-.08-.02-.08-.03-.08-.03-.08-.03-.08-.03-.07-.03-.07-.03-.07-.04-.07-.04-.07-.04-.07-.04-.06-.04-.06-.05-.06-.05-.06-.05-.05-.05-.05-.05-.05-.05-.05-.06-.05-.06-.05-.06-.04-.06-.04-.07-.04-.07-.04-.07-.04-.08-.04-.08-.03-.08-.03-.09-.03-.09-.03-.09-.03-.1-.03-.1-.03-.1-.03-.11-.02-.11-.02-.11-.02-.12-.02-.12-.02-.12-.02h-.13s-.13-.03-.13-.03h-.13s-.14-.02-.14-.02h-.14s-.14-.02-.14-.02h-.14s-.15-.01-.15-.01h-.15s-.15,0-.15,0h-.16s-.11,0-.11,0h-.11s-.1,0-.1,0h-.1s-.1.01-.1.01h-.1s-.1.01-.1.01h-.1s-.09.02-.09.02h-.09s-.09.02-.09.02h-.09s-.09.03-.09.03l-.09.02-.09.02-.08.02-.08.02-.08.02-.08.02-.08.02-.08.03-.08.03-.07.03-.07.03-.07.03-.07.03-.07.03-.07.03-.07.04-.06.04-.06.04-.06.04-.06.04-.06.04-.06.04-.06.05-.06.05-.06.05-.06.05-.05.05-.05.06-.05.06-.05.06-.05.06-.05.06-.05.06-.05.07-.05.07-.05.07-.05.07-.05.07-.05.08-.05.08-.05.08-.04.08-.04.08-.04.09-.04.09-.04.09-.04.09-.04.09-.04.09-.04.1-.04.1Z"/>
  <polygon class="cls-2" points="185.02 8.69 185.02 13.5 180.63 13.5 180.63 22.87 180.63 23.04 180.63 23.2 180.63 23.36 180.63 23.52 180.63 23.66 180.63 23.81 180.63 23.95 180.64 24.09 180.64 24.22 180.64 24.34 180.64 24.47 180.65 24.58 180.65 24.7 180.65 24.81 180.66 24.91 180.66 25.01 180.66 25.1 180.67 25.19 180.67 25.28 180.68 25.36 180.68 25.44 180.69 25.51 180.7 25.58 180.7 25.64 180.71 25.7 180.71 25.75 180.72 25.8 180.73 25.85 180.74 25.89 180.74 25.92 180.75 25.96 180.76 25.98 180.77 26.01 180.78 26.04 180.79 26.07 180.8 26.1 180.81 26.12 180.82 26.15 180.83 26.18 180.85 26.2 180.86 26.23 180.88 26.25 180.89 26.28 180.91 26.3 180.92 26.33 180.94 26.35 180.96 26.38 180.97 26.4 180.99 26.42 181.01 26.44 181.03 26.47 181.05 26.49 181.07 26.51 181.1 26.53 181.12 26.56 181.14 26.58 181.17 26.6 181.19 26.62 181.22 26.64 181.24 26.66 181.27 26.68 181.29 26.7 181.32 26.72 181.35 26.74 181.38 26.75 181.41 26.77 181.44 26.79 181.47 26.8 181.5 26.82 181.53 26.83 181.56 26.85 181.59 26.86 181.62 26.88 181.65 26.89 181.68 26.9 181.72 26.91 181.75 26.92 181.78 26.93 181.82 26.94 181.85 26.95 181.89 26.96 181.92 26.97 181.96 26.98 181.99 26.98 182.03 26.99 182.07 26.99 182.1 27 182.14 27 182.18 27.01 182.21 27.01 182.25 27.01 182.29 27.02 182.33 27.02 182.37 27.02 182.41 27.02 182.47 27.02 182.52 27.02 182.58 27.01 182.65 27.01 182.71 27 182.77 27 182.84 26.99 182.91 26.98 182.98 26.97 183.05 26.96 183.12 26.95 183.2 26.94 183.27 26.92 183.35 26.91 183.43 26.89 183.51 26.87 183.59 26.85 183.67 26.83 183.76 26.81 183.84 26.79 183.93 26.77 184.02 26.74 184.11 26.72 184.2 26.69 184.3 26.66 184.39 26.63 184.49 26.61 184.59 26.57 184.69 26.54 184.79 26.51 184.9 26.47 185 26.44 185.55 31.12 185.41 31.18 185.27 31.23 185.12 31.28 184.98 31.33 184.83 31.38 184.69 31.43 184.54 31.47 184.39 31.51 184.24 31.56 184.09 31.6 183.94 31.63 183.78 31.67 183.63 31.7 183.47 31.74 183.31 31.77 183.16 31.8 183 31.82 182.84 31.85 182.67 31.87 182.51 31.9 182.35 31.92 182.18 31.93 182.01 31.95 181.85 31.97 181.68 31.98 181.51 31.99 181.34 32 181.16 32.01 180.99 32.01 180.82 32.02 180.64 32.02 180.46 32.02 180.35 32.02 180.25 32.02 180.14 32.02 180.03 32.01 179.93 32.01 179.82 32 179.72 32 179.61 31.99 179.51 31.98 179.41 31.97 179.31 31.96 179.21 31.95 179.11 31.93 179.01 31.92 178.91 31.9 178.81 31.89 178.71 31.87 178.61 31.85 178.52 31.83 178.42 31.81 178.33 31.79 178.23 31.76 178.14 31.74 178.05 31.72 177.95 31.69 177.86 31.66 177.77 31.64 177.68 31.61 177.59 31.58 177.5 31.54 177.41 31.51 177.33 31.48 177.24 31.45 177.16 31.41 177.07 31.37 176.99 31.34 176.91 31.3 176.83 31.26 176.75 31.22 176.68 31.18 176.6 31.14 176.53 31.1 176.46 31.06 176.39 31.02 176.32 30.98 176.25 30.94 176.18 30.89 176.12 30.85 176.05 30.8 175.99 30.76 175.93 30.71 175.87 30.66 175.82 30.62 175.76 30.57 175.71 30.52 175.65 30.47 175.6 30.42 175.55 30.37 175.5 30.32 175.45 30.27 175.41 30.22 175.36 30.16 175.32 30.11 175.28 30.06 175.24 30 175.2 29.94 175.16 29.89 175.12 29.83 175.08 29.77 175.05 29.71 175.01 29.65 174.98 29.58 174.94 29.52 174.91 29.45 174.88 29.39 174.84 29.32 174.81 29.25 174.78 29.18 174.75 29.11 174.73 29.03 174.7 28.96 174.67 28.88 174.64 28.81 174.62 28.73 174.59 28.65 174.57 28.57 174.55 28.49 174.52 28.41 174.5 28.32 174.48 28.24 174.46 28.15 174.44 28.06 174.42 27.97 174.41 27.88 174.39 27.79 174.37 27.7 174.36 27.63 174.35 27.56 174.34 27.49 174.32 27.41 174.31 27.32 174.3 27.23 174.29 27.14 174.28 27.04 174.27 26.94 174.27 26.84 174.26 26.73 174.25 26.61 174.24 26.49 174.23 26.37 174.23 26.24 174.22 26.11 174.21 25.98 174.21 25.84 174.2 25.69 174.2 25.55 174.19 25.4 174.19 25.24 174.19 25.08 174.18 24.91 174.18 24.75 174.18 24.57 174.17 24.39 174.17 24.21 174.17 24.03 174.17 23.84 174.17 23.64 174.17 23.45 174.17 13.5 171.21 13.5 171.21 8.69 174.17 8.69 174.17 4.14 180.63 .62 180.63 8.69 185.02 8.69"/>
  <path class="cls-2" d="M150.32,20.09v.21s0,.21,0,.21v.2s.02.2.02.2v.2s.03.2.03.2l.02.19.03.19.03.19.03.18.04.18.04.18.04.17.05.17.05.17.05.16.06.16.06.16.06.16.07.15.07.15.07.15.08.14.08.14.08.14.09.13.09.13.09.13.1.12.1.12.1.12.11.11.11.11.11.11.11.1.11.1.11.1.12.09.12.09.12.09.12.08.12.08.12.08.13.07.13.07.13.07.13.06.13.06.13.05.13.05.14.05.14.04.14.04.14.04.14.03.14.03.15.03.15.02.15.02.15.02h.15s.15.02.15.02h.16s.16,0,.16,0h.16s.16,0,.16,0h.15s.15-.02.15-.02l.15-.02.15-.02.15-.02.15-.03.14-.03.14-.03.14-.04.14-.04.14-.04.14-.05.13-.05.13-.05.13-.06.13-.06.13-.07.13-.07.12-.07.12-.08.12-.08.12-.08.12-.09.12-.09.12-.09.11-.1.11-.1.11-.1.11-.11.11-.11.11-.11.1-.12.1-.12.1-.12.09-.13.09-.13.09-.13.08-.14.08-.14.07-.14.07-.15.07-.15.06-.15.06-.16.06-.16.06-.16.05-.17.05-.17.05-.17.04-.18.04-.18.04-.18.03-.19.03-.19.02-.19.02-.19.02-.2.02-.2v-.2s.02-.21.02-.21v-.21s0-.21,0-.21v-.21s0-.2,0-.2v-.2s-.02-.2-.02-.2l-.02-.2-.02-.19-.02-.19-.02-.19-.03-.18-.03-.18-.04-.18-.04-.18-.04-.17-.05-.17-.05-.17-.05-.16-.06-.16-.06-.16-.06-.15-.06-.15-.07-.15-.07-.14-.07-.14-.08-.14-.08-.14-.09-.13-.09-.13-.09-.13-.1-.12-.1-.12-.1-.12-.11-.11-.11-.11-.11-.11-.11-.1-.11-.1-.11-.1-.12-.09-.12-.09-.12-.09-.12-.08-.12-.08-.12-.08-.12-.07-.13-.07-.13-.07-.13-.06-.13-.06-.13-.06-.13-.05-.14-.05-.14-.04-.14-.04-.14-.04-.14-.03-.14-.03-.15-.03-.15-.02-.15-.02-.15-.02h-.15s-.15-.02-.15-.02h-.16s-.16,0-.16,0h-.16s-.16,0-.16,0h-.15s-.15.02-.15.02l-.15.02-.15.02-.15.02-.15.03-.14.03-.14.03-.14.04-.14.04-.14.04-.14.05-.13.05-.13.06-.13.06-.13.06-.13.07-.13.07-.13.07-.12.08-.12.08-.12.08-.12.09-.12.09-.12.09-.11.1-.11.1-.11.1-.11.11-.11.11-.11.11-.1.12-.1.12-.1.12-.09.13-.09.13-.09.13-.08.14-.08.14-.08.14-.07.15-.07.15-.07.15-.06.15-.06.16-.06.16-.05.16-.05.17-.05.17-.04.17-.04.18-.04.18-.03.18-.03.19-.03.19-.02.19-.02.19v.2s-.03.2-.03.2v.2s-.01.21-.01.21v.21ZM143.73,19.77v-.19s0-.19,0-.19v-.19s.02-.19.02-.19v-.19s.03-.19.03-.19l.02-.19.02-.19.03-.18.03-.18.03-.18.04-.18.04-.18.04-.18.04-.18.05-.18.05-.18.05-.18.06-.18.06-.18.06-.18.07-.18.07-.18.07-.18.08-.18.08-.18.08-.18.08-.18.09-.18.09-.18.09-.18.1-.18.1-.17.1-.17.11-.17.11-.17.11-.16.11-.16.12-.16.12-.16.12-.15.12-.15.13-.15.13-.15.13-.14.13-.14.14-.14.14-.14.14-.13.14-.13.15-.13.15-.13.15-.12.15-.12.16-.12.16-.11.16-.11.16-.11.17-.11.17-.1.17-.1.17-.1.18-.1.18-.09.18-.09.18-.09.18-.09.19-.08.19-.08.19-.08.19-.07.19-.07.19-.07.19-.07.19-.06.2-.06.2-.06.2-.05.2-.05.2-.05.2-.05.2-.04.21-.04.21-.04.21-.03.21-.03.21-.03.21-.03.21-.02.22-.02.22-.02h.22s.22-.02.22-.02h.22s.22-.01.22-.01h.22s.34,0,.34,0h.34s.33.03.33.03l.33.02.33.03.32.04.32.04.32.05.31.06.31.06.3.07.3.08.3.08.29.09.29.1.28.1.28.11.28.12.27.12.27.13.27.14.26.14.26.15.25.15.25.16.25.17.24.17.24.18.23.19.23.19.23.2.22.21.22.21.21.22.2.22.2.22.19.23.18.23.18.23.17.24.16.24.15.24.15.25.14.25.13.25.13.26.12.26.11.26.11.27.1.27.09.27.09.28.08.28.07.28.06.29.06.29.05.3.05.3.04.3.03.31.02.31.02.31v.32s.01.32.01.32v.32s-.01.32-.01.32l-.02.31-.02.31-.03.31-.04.3-.04.3-.05.3-.06.29-.07.29-.07.29-.08.28-.09.28-.09.28-.1.27-.11.27-.11.27-.12.26-.13.26-.14.26-.14.25-.15.25-.16.25-.16.24-.17.24-.18.24-.18.23-.19.23-.2.22-.2.22-.21.22-.22.21-.22.21-.23.2-.23.2-.24.19-.24.18-.24.18-.25.17-.25.16-.25.16-.26.15-.26.14-.26.14-.27.13-.27.12-.27.12-.28.11-.28.1-.29.1-.29.09-.29.08-.3.08-.3.07-.3.06-.31.06-.31.05-.31.04-.32.04-.32.03-.33.02-.33.02h-.33s-.34.01-.34.01h-.21s-.21,0-.21,0h-.21s-.21-.02-.21-.02h-.21s-.21-.03-.21-.03l-.2-.02-.2-.02-.2-.02-.2-.03-.2-.03-.2-.03-.2-.03-.2-.04-.2-.04-.2-.04-.2-.05-.2-.05-.2-.05-.2-.05-.2-.06-.2-.06-.2-.06-.19-.07-.19-.07-.19-.07-.19-.07-.19-.08-.19-.08-.19-.08-.19-.08-.19-.09-.19-.09-.19-.09-.18-.1-.18-.1-.18-.1-.17-.1-.17-.11-.17-.11-.17-.11-.16-.11-.16-.12-.16-.12-.15-.12-.15-.12-.15-.13-.15-.13-.14-.13-.14-.13-.14-.14-.13-.14-.13-.14-.13-.14-.13-.15-.12-.15-.12-.15-.12-.15-.11-.16-.11-.16-.11-.16-.11-.16-.1-.17-.1-.17-.1-.17-.09-.17-.09-.18-.09-.18-.08-.18-.08-.18-.08-.19-.08-.19-.07-.19-.07-.19-.07-.2-.06-.2-.06-.2-.06-.2-.05-.2-.05-.21-.05-.21-.04-.21-.04-.21-.04-.22-.04-.22-.03-.22-.03-.22-.03-.23-.02-.23-.02-.23-.02-.23v-.24s-.02-.24-.02-.24v-.24s-.01-.24-.01-.24v-.25Z"/>
  <path class="cls-2" d="M122.75,19.71v.24s0,.23,0,.23v.23s.02.23.02.23v.22s.03.22.03.22l.02.22.02.21.03.21.03.2.03.2.04.2.04.19.04.19.05.18.05.18.05.18.06.17.06.17.06.16.07.16.07.16.07.15.07.15.08.14.08.14.08.14.09.13.09.13.09.12.1.12.1.12.1.11.1.11.1.11.11.1.11.1.11.09.11.09.11.09.11.08.11.08.12.08.12.07.12.07.12.07.12.06.12.06.12.06.13.05.13.05.13.05.13.04.13.04.13.03.13.03.14.03.14.02.14.02.14.02h.14s.14.02.14.02h.14s.15,0,.15,0h.14s.14,0,.14,0h.14s.13-.02.13-.02h.13s.13-.03.13-.03l.13-.02.13-.02.13-.03.13-.03.12-.03.12-.04.12-.04.12-.04.12-.05.12-.05.12-.05.11-.06.11-.06.11-.06.11-.07.11-.07.11-.07.11-.08.1-.08.1-.08.1-.09.1-.09.1-.09.1-.1.1-.1.09-.1.09-.11.09-.11.09-.12.08-.12.08-.12.08-.13.07-.13.07-.14.07-.14.07-.15.06-.15.06-.15.06-.16.05-.16.05-.17.05-.17.05-.18.04-.18.04-.18.04-.19.03-.19.03-.2.03-.2.02-.2.02-.21.02-.21.02-.22v-.22s.02-.22.02-.22v-.23s.01-.23.01-.23v-.24s0-.22,0-.22v-.22s-.01-.22-.01-.22v-.21s-.02-.21-.02-.21l-.02-.2-.02-.2-.02-.2-.03-.19-.03-.19-.03-.19-.04-.18-.04-.18-.04-.18-.04-.17-.05-.17-.05-.16-.05-.16-.06-.16-.06-.15-.06-.15-.06-.15-.07-.14-.07-.14-.07-.14-.08-.13-.08-.13-.08-.13-.09-.12-.09-.12-.09-.11-.09-.11-.1-.11-.1-.1-.1-.1-.1-.1-.1-.09-.1-.09-.11-.09-.11-.08-.11-.08-.11-.08-.11-.07-.11-.07-.11-.07-.12-.06-.12-.06-.12-.06-.12-.05-.12-.05-.12-.05-.12-.04-.13-.04-.13-.04-.13-.03-.13-.03-.13-.03-.13-.02-.13-.02h-.13s-.14-.03-.14-.03h-.14s-.14-.01-.14-.01h-.14s-.15,0-.15,0h-.15s-.14.01-.14.01h-.14s-.14.03-.14.03l-.14.02-.14.02-.14.02-.13.03-.13.03-.13.03-.13.04-.13.04-.13.05-.12.05-.12.05-.12.05-.12.06-.12.06-.12.07-.12.07-.11.07-.11.07-.11.08-.11.08-.11.09-.11.09-.1.09-.1.1-.1.1-.1.1-.1.11-.1.11-.09.11-.09.11-.09.12-.08.12-.08.12-.08.13-.07.13-.07.13-.07.14-.07.14-.06.14-.06.15-.06.15-.05.15-.05.16-.05.16-.04.16-.04.17-.04.17-.03.17-.03.18-.03.18-.03.18-.02.19-.02.19-.02.19v.19s-.02.2-.02.2v.2s-.01.21-.01.21v.21ZM116.38,8.69h6v3.35l.07-.11.07-.11.08-.1.08-.1.08-.1.08-.1.08-.1.08-.1.09-.1.09-.1.09-.09.09-.09.09-.09.09-.09.1-.09.1-.09.1-.09.1-.09.1-.08.1-.08.11-.08.11-.08.11-.08.11-.08.11-.08.11-.08.12-.07.12-.07.12-.07.12-.07.12-.07.12-.07.13-.07.13-.06.13-.06.13-.06.13-.06.13-.06.13-.05.13-.05.13-.05.13-.05.13-.05.13-.04.14-.04.14-.04.14-.04.14-.04.14-.03.14-.03.14-.03.14-.03.14-.02.14-.02.14-.02.14-.02.15-.02h.15s.15-.02.15-.02h.15s.15-.02.15-.02h.15s.15,0,.15,0h.15s.26,0,.26,0h.26s.26.02.26.02l.26.02.25.03.25.03.25.04.25.05.24.05.24.06.24.06.24.07.23.08.23.08.23.09.23.09.22.1.22.11.22.11.22.12.21.13.21.13.21.14.21.14.2.15.2.16.2.16.2.17.19.17.19.18.19.19.19.19.18.2.18.2.17.21.16.21.16.22.15.22.15.23.14.23.14.24.13.24.12.25.12.25.11.25.11.26.1.26.1.27.09.27.08.28.08.28.07.29.07.29.06.3.06.3.05.31.04.31.04.32.03.32.03.33.02.33v.34s.02.34.02.34v.35s0,.35,0,.35v.35s-.02.34-.02.34l-.02.34-.03.33-.03.33-.04.32-.04.32-.05.31-.06.31-.06.3-.07.3-.07.29-.08.29-.08.29-.09.28-.1.28-.1.27-.11.27-.11.26-.12.26-.12.25-.13.25-.14.24-.14.24-.15.23-.15.23-.16.22-.17.22-.17.21-.18.21-.18.2-.19.19-.19.19-.19.18-.19.18-.2.17-.2.16-.2.16-.2.15-.21.15-.21.14-.21.13-.21.13-.22.12-.22.11-.22.11-.22.1-.23.1-.23.09-.23.08-.23.08-.24.07-.24.07-.24.06-.24.05-.25.05-.25.04-.25.03-.25.03-.26.02-.26.02h-.26s-.26.01-.26.01h-.13s-.12,0-.12,0h-.12s-.12,0-.12,0h-.12s-.12-.01-.12-.01h-.12s-.12-.02-.12-.02h-.12s-.12-.03-.12-.03h-.12s-.12-.03-.12-.03l-.12-.02-.12-.02-.12-.02-.12-.02-.11-.02-.11-.03-.11-.03-.11-.03-.11-.03-.11-.03-.11-.03-.11-.03-.11-.04-.11-.04-.11-.04-.11-.04-.11-.04-.1-.04-.1-.05-.1-.05-.1-.05-.1-.05-.1-.05-.1-.06-.1-.06-.1-.06-.1-.06-.1-.06-.11-.07-.11-.07-.11-.07-.11-.07-.11-.07-.11-.07-.11-.08-.11-.08-.11-.08-.11-.08-.11-.09-.11-.09-.11-.09-.11-.09-.11-.09-.11-.1-.11-.1-.11-.1-.11-.1-.11-.1-.11-.11-.11-.11-.11-.11-.11-.11v11.5h-6.43V8.69Z"/>
  <path class="cls-2" d="M93.02,20.09v.21s0,.21,0,.21v.2s.02.2.02.2l.02.2.02.2.02.19.03.19.03.19.03.18.04.18.04.18.04.17.05.17.05.17.05.16.06.16.06.16.06.16.07.15.07.15.07.15.08.14.08.14.08.14.09.13.09.13.09.13.1.12.1.12.1.12.11.11.11.11.11.11.11.1.11.1.11.1.12.09.12.09.12.09.12.08.12.08.12.08.13.07.13.07.13.07.13.06.13.06.13.05.13.05.14.05.14.04.14.04.14.04.14.03.14.03.15.03.15.02.15.02.15.02h.15s.15.02.15.02h.16s.16,0,.16,0h.16s.15,0,.15,0h.15s.15-.02.15-.02l.15-.02.15-.02.15-.02.15-.03.14-.03.14-.03.14-.04.14-.04.14-.04.14-.05.13-.05.13-.05.13-.06.13-.06.13-.07.13-.07.12-.07.12-.08.12-.08.12-.08.12-.09.12-.09.11-.09.11-.1.11-.1.11-.1.11-.11.11-.11.11-.11.1-.12.1-.12.1-.12.09-.13.09-.13.09-.13.08-.14.08-.14.07-.14.07-.15.07-.15.07-.15.06-.16.06-.16.06-.16.05-.17.05-.17.05-.17.04-.18.04-.18.04-.18.03-.19.03-.19.02-.19.02-.19.02-.2v-.2s.03-.2.03-.2v-.21s.01-.21.01-.21v-.21s0-.21,0-.21v-.2s-.01-.2-.01-.2v-.2s-.03-.2-.03-.2l-.02-.19-.02-.19-.02-.19-.03-.18-.03-.18-.04-.18-.04-.18-.04-.17-.05-.17-.05-.17-.05-.16-.06-.16-.06-.16-.06-.15-.07-.15-.07-.15-.07-.14-.07-.14-.08-.14-.08-.14-.09-.13-.09-.13-.09-.13-.1-.12-.1-.12-.1-.12-.11-.11-.11-.11-.11-.11-.11-.1-.11-.1-.11-.1-.11-.09-.12-.09-.12-.09-.12-.08-.12-.08-.12-.08-.12-.07-.13-.07-.13-.07-.13-.06-.13-.06-.13-.06-.13-.05-.14-.05-.14-.04-.14-.04-.14-.04-.14-.03-.14-.03-.15-.03-.15-.02-.15-.02-.15-.02h-.15s-.15-.02-.15-.02h-.15s-.16,0-.16,0h-.16s-.16,0-.16,0h-.15s-.15.02-.15.02l-.15.02-.15.02-.15.02-.15.03-.14.03-.14.03-.14.04-.14.04-.14.04-.14.05-.13.05-.13.06-.13.06-.13.06-.13.07-.13.07-.13.07-.12.08-.12.08-.12.08-.12.09-.12.09-.12.09-.11.1-.11.1-.11.1-.11.11-.11.11-.11.11-.1.12-.1.12-.1.12-.09.13-.09.13-.09.13-.08.14-.08.14-.08.14-.07.15-.07.15-.07.15-.06.15-.06.16-.06.16-.05.16-.05.17-.05.17-.04.17-.04.18-.04.18-.03.18-.03.19-.03.19-.02.19-.02.19-.02.2v.2s-.02.2-.02.2v.21s0,.21,0,.21ZM86.43,19.77v-.19s0-.19,0-.19v-.19s.02-.19.02-.19v-.19s.03-.19.03-.19l.02-.19.02-.19.03-.18.03-.18.03-.18.04-.18.04-.18.04-.18.04-.18.05-.18.05-.18.05-.18.06-.18.06-.18.06-.18.07-.18.07-.18.07-.18.08-.18.08-.18.08-.18.08-.18.09-.18.09-.18.09-.18.1-.18.1-.17.1-.17.11-.17.11-.17.11-.16.11-.16.12-.16.12-.16.12-.15.12-.15.13-.15.13-.15.13-.14.13-.14.14-.14.14-.14.14-.13.14-.13.15-.13.15-.13.15-.12.15-.12.16-.12.16-.11.16-.11.16-.11.17-.11.17-.1.17-.1.17-.1.18-.1.18-.09.18-.09.18-.09.18-.09.19-.08.19-.08.19-.08.19-.07.19-.07.19-.07.19-.07.19-.06.2-.06.2-.06.2-.05.2-.05.2-.05.2-.05.2-.04.21-.04.21-.04.21-.03.21-.03.21-.03.21-.03.21-.02.22-.02.22-.02h.22s.22-.02.22-.02h.22s.22-.01.22-.01h.22s.34,0,.34,0h.34s.33.03.33.03l.33.02.33.03.32.04.32.04.32.05.31.06.31.06.3.07.3.08.3.08.29.09.29.1.28.1.28.11.28.12.27.12.27.13.27.14.26.14.26.15.25.15.25.16.25.17.24.17.24.18.23.19.23.19.23.2.22.21.22.21.21.22.2.22.2.22.19.23.18.23.18.23.17.24.16.24.16.24.15.25.14.25.13.25.13.26.12.26.11.26.11.27.1.27.09.27.09.28.08.28.07.28.07.29.06.29.05.3.04.3.04.3.03.31.02.31.02.31v.32s.01.32.01.32v.32s-.01.32-.01.32l-.02.31-.02.31-.03.31-.04.3-.05.3-.05.3-.06.29-.07.29-.07.29-.08.28-.09.28-.09.28-.1.27-.11.27-.12.27-.12.26-.13.26-.14.26-.14.25-.15.25-.16.25-.16.24-.17.24-.18.24-.18.23-.19.23-.2.22-.2.22-.21.22-.22.21-.22.21-.23.2-.23.2-.24.19-.24.18-.24.18-.25.17-.25.16-.25.16-.26.15-.26.14-.26.14-.27.13-.27.12-.27.12-.28.11-.28.1-.29.1-.29.09-.29.08-.3.08-.3.07-.3.06-.31.06-.31.05-.31.04-.32.04-.32.03-.32.02-.33.02h-.33s-.34.01-.34.01h-.21s-.21,0-.21,0h-.21s-.21-.02-.21-.02h-.21s-.21-.03-.21-.03l-.21-.02-.2-.02-.2-.02-.2-.03-.2-.03-.2-.03-.2-.03-.2-.04-.2-.04-.2-.04-.2-.05-.2-.05-.2-.05-.2-.05-.2-.06-.2-.06-.2-.06-.19-.07-.19-.07-.19-.07-.19-.07-.19-.08-.19-.08-.19-.08-.19-.08-.19-.09-.19-.09-.19-.09-.18-.1-.18-.1-.18-.1-.17-.1-.17-.11-.17-.11-.17-.11-.16-.11-.16-.12-.16-.12-.15-.12-.15-.12-.15-.13-.15-.13-.14-.13-.14-.13-.14-.14-.13-.14-.13-.14-.13-.14-.13-.15-.12-.15-.12-.15-.12-.15-.11-.16-.11-.16-.11-.16-.11-.16-.1-.17-.1-.17-.1-.17-.09-.17-.09-.18-.09-.18-.08-.18-.08-.18-.08-.19-.08-.19-.07-.19-.07-.19-.07-.2-.06-.2-.06-.2-.06-.2-.05-.2-.05-.21-.05-.21-.04-.21-.04-.21-.04-.22-.04-.22-.03-.22-.03-.22-.03-.23-.02-.23-.02-.23-.02-.23v-.24s-.02-.24-.02-.24v-.24s-.01-.24-.01-.24v-.25Z"/>
  <polygon class="cls-2" points="59.56 24.99 66.02 24.07 66.05 24.18 66.08 24.29 66.11 24.39 66.14 24.5 66.17 24.6 66.21 24.7 66.24 24.8 66.28 24.9 66.32 24.99 66.36 25.09 66.4 25.18 66.45 25.27 66.49 25.36 66.54 25.45 66.59 25.54 66.64 25.62 66.7 25.7 66.75 25.78 66.81 25.86 66.87 25.94 66.93 26.02 66.99 26.09 67.05 26.17 67.12 26.24 67.18 26.31 67.25 26.38 67.32 26.44 67.39 26.51 67.46 26.57 67.54 26.63 67.62 26.69 67.69 26.75 67.77 26.8 67.86 26.86 67.94 26.91 68.02 26.96 68.11 27.01 68.2 27.06 68.29 27.1 68.38 27.15 68.48 27.19 68.58 27.23 68.68 27.27 68.78 27.31 68.88 27.34 68.99 27.37 69.09 27.41 69.2 27.43 69.31 27.46 69.43 27.49 69.54 27.51 69.66 27.54 69.78 27.56 69.9 27.57 70.02 27.59 70.15 27.61 70.27 27.62 70.4 27.63 70.53 27.64 70.67 27.65 70.8 27.66 70.94 27.66 71.08 27.66 71.22 27.66 71.38 27.66 71.53 27.66 71.68 27.66 71.83 27.65 71.97 27.64 72.11 27.63 72.25 27.62 72.39 27.61 72.53 27.6 72.66 27.58 72.79 27.56 72.92 27.54 73.04 27.52 73.17 27.5 73.29 27.48 73.41 27.45 73.52 27.42 73.64 27.39 73.75 27.36 73.86 27.33 73.96 27.29 74.07 27.26 74.17 27.22 74.27 27.18 74.36 27.14 74.46 27.09 74.55 27.05 74.64 27 74.73 26.95 74.81 26.9 74.89 26.85 74.97 26.8 75.03 26.76 75.08 26.72 75.13 26.68 75.17 26.64 75.22 26.6 75.26 26.56 75.31 26.52 75.35 26.47 75.39 26.43 75.42 26.39 75.46 26.34 75.49 26.29 75.53 26.25 75.56 26.2 75.59 26.15 75.61 26.1 75.64 26.05 75.66 26 75.69 25.94 75.71 25.89 75.72 25.84 75.74 25.78 75.76 25.73 75.77 25.67 75.78 25.61 75.8 25.55 75.8 25.5 75.81 25.44 75.82 25.38 75.82 25.32 75.82 25.26 75.82 25.19 75.82 25.15 75.82 25.11 75.82 25.07 75.82 25.02 75.81 24.98 75.81 24.94 75.8 24.9 75.8 24.86 75.79 24.82 75.78 24.78 75.77 24.74 75.76 24.71 75.75 24.67 75.74 24.63 75.72 24.6 75.71 24.56 75.69 24.52 75.68 24.49 75.66 24.45 75.64 24.42 75.62 24.39 75.61 24.35 75.59 24.32 75.56 24.29 75.54 24.26 75.52 24.23 75.5 24.2 75.47 24.17 75.45 24.13 75.42 24.11 75.39 24.08 75.36 24.05 75.33 24.02 75.3 23.99 75.26 23.97 75.22 23.94 75.18 23.92 75.14 23.89 75.1 23.86 75.05 23.84 75 23.81 74.95 23.79 74.89 23.76 74.84 23.74 74.78 23.71 74.71 23.68 74.65 23.66 74.58 23.64 74.52 23.61 74.45 23.59 74.37 23.56 74.3 23.54 74.22 23.51 74.14 23.49 74.06 23.47 73.97 23.44 73.89 23.42 73.8 23.39 73.71 23.37 73.61 23.35 73.52 23.32 73.42 23.3 73.32 23.28 73.21 23.26 72.73 23.16 72.26 23.06 71.8 22.96 71.36 22.86 70.92 22.76 70.49 22.66 70.08 22.57 69.68 22.47 69.28 22.37 68.9 22.28 68.53 22.18 68.18 22.09 67.83 21.99 67.49 21.9 67.17 21.81 66.85 21.72 66.55 21.62 66.26 21.53 65.98 21.44 65.71 21.35 65.45 21.26 65.2 21.17 64.97 21.09 64.74 21 64.53 20.91 64.32 20.82 64.13 20.74 63.95 20.65 63.78 20.57 63.62 20.48 63.48 20.4 63.34 20.31 63.16 20.2 62.99 20.08 62.82 19.95 62.66 19.83 62.51 19.7 62.36 19.57 62.22 19.44 62.08 19.3 61.95 19.16 61.82 19.02 61.7 18.87 61.58 18.72 61.47 18.57 61.37 18.42 61.27 18.26 61.18 18.1 61.09 17.94 61.01 17.78 60.93 17.61 60.86 17.44 60.8 17.26 60.74 17.09 60.68 16.91 60.64 16.73 60.59 16.54 60.56 16.35 60.53 16.16 60.5 15.97 60.48 15.78 60.47 15.58 60.46 15.38 60.46 15.17 60.46 14.99 60.47 14.8 60.48 14.62 60.49 14.45 60.52 14.27 60.54 14.09 60.57 13.92 60.61 13.75 60.65 13.58 60.7 13.41 60.75 13.25 60.81 13.08 60.87 12.92 60.93 12.76 61 12.6 61.08 12.44 61.16 12.29 61.24 12.14 61.33 11.99 61.43 11.84 61.53 11.69 61.63 11.54 61.74 11.4 61.86 11.26 61.98 11.12 62.1 10.98 62.23 10.84 62.36 10.71 62.5 10.58 62.65 10.45 62.8 10.32 62.95 10.19 63.11 10.07 63.27 9.94 63.44 9.83 63.62 9.72 63.8 9.61 63.98 9.5 64.17 9.4 64.37 9.3 64.57 9.21 64.78 9.12 64.99 9.04 65.21 8.96 65.43 8.88 65.66 8.81 65.89 8.74 66.13 8.67 66.38 8.61 66.63 8.55 66.88 8.5 67.14 8.45 67.41 8.4 67.68 8.36 67.96 8.33 68.24 8.29 68.53 8.26 68.82 8.24 69.12 8.21 69.42 8.2 69.73 8.18 70.04 8.17 70.36 8.17 70.69 8.17 71 8.17 71.3 8.17 71.6 8.18 71.9 8.19 72.19 8.2 72.47 8.22 72.75 8.24 73.03 8.26 73.3 8.29 73.56 8.32 73.82 8.35 74.08 8.38 74.33 8.42 74.57 8.46 74.81 8.5 75.04 8.55 75.27 8.6 75.5 8.65 75.72 8.7 75.93 8.76 76.14 8.82 76.35 8.89 76.55 8.96 76.74 9.03 76.93 9.1 77.11 9.17 77.29 9.25 77.47 9.33 77.64 9.42 77.8 9.51 77.96 9.6 78.11 9.69 78.27 9.79 78.41 9.89 78.56 9.99 78.7 10.1 78.84 10.2 78.97 10.32 79.1 10.43 79.23 10.55 79.36 10.67 79.48 10.79 79.6 10.91 79.72 11.04 79.84 11.17 79.95 11.31 80.06 11.45 80.16 11.58 80.27 11.73 80.36 11.87 80.46 12.02 80.56 12.17 80.65 12.33 80.73 12.48 80.82 12.64 80.9 12.81 80.98 12.97 81.06 13.14 81.13 13.31 81.2 13.48 81.27 13.66 81.33 13.84 81.39 14.02 81.45 14.21 75.39 15.26 75.36 15.18 75.34 15.1 75.31 15.01 75.28 14.94 75.25 14.86 75.22 14.78 75.18 14.71 75.15 14.63 75.11 14.56 75.08 14.49 75.04 14.42 75 14.35 74.96 14.28 74.91 14.21 74.87 14.15 74.82 14.08 74.78 14.02 74.73 13.96 74.68 13.9 74.63 13.84 74.58 13.78 74.52 13.72 74.47 13.67 74.41 13.61 74.35 13.56 74.29 13.51 74.23 13.46 74.17 13.41 74.11 13.36 74.04 13.31 73.98 13.26 73.91 13.22 73.84 13.18 73.77 13.13 73.7 13.09 73.62 13.05 73.55 13.01 73.47 12.98 73.39 12.94 73.31 12.91 73.22 12.88 73.14 12.84 73.05 12.81 72.96 12.79 72.87 12.76 72.78 12.73 72.69 12.71 72.59 12.69 72.49 12.66 72.39 12.64 72.29 12.63 72.19 12.61 72.08 12.59 71.97 12.58 71.87 12.56 71.76 12.55 71.64 12.54 71.53 12.53 71.41 12.53 71.3 12.52 71.18 12.51 71.05 12.51 70.93 12.51 70.81 12.51 70.65 12.51 70.49 12.51 70.34 12.51 70.19 12.52 70.05 12.52 69.9 12.53 69.76 12.54 69.62 12.55 69.49 12.56 69.36 12.57 69.23 12.59 69.1 12.6 68.98 12.62 68.86 12.64 68.74 12.65 68.62 12.67 68.51 12.7 68.4 12.72 68.3 12.74 68.19 12.77 68.09 12.79 67.99 12.82 67.9 12.85 67.8 12.88 67.71 12.91 67.63 12.95 67.54 12.98 67.46 13.02 67.38 13.06 67.31 13.09 67.23 13.13 67.16 13.18 67.12 13.21 67.07 13.24 67.03 13.27 66.99 13.3 66.95 13.33 66.92 13.36 66.88 13.4 66.84 13.43 66.81 13.47 66.78 13.5 66.75 13.53 66.72 13.57 66.69 13.61 66.67 13.64 66.64 13.68 66.62 13.72 66.6 13.76 66.58 13.8 66.56 13.84 66.54 13.88 66.52 13.92 66.51 13.96 66.49 14 66.48 14.04 66.47 14.09 66.46 14.13 66.45 14.17 66.45 14.22 66.44 14.26 66.44 14.31 66.44 14.35 66.44 14.4 66.44 14.44 66.44 14.48 66.44 14.52 66.45 14.56 66.45 14.6 66.46 14.64 66.47 14.67 66.48 14.71 66.49 14.75 66.5 14.79 66.51 14.82 66.53 14.86 66.54 14.89 66.56 14.93 66.58 14.96 66.6 15 66.62 15.03 66.64 15.06 66.66 15.1 66.69 15.13 66.71 15.16 66.74 15.19 66.77 15.23 66.8 15.26 66.83 15.29 66.86 15.32 66.89 15.35 66.93 15.38 66.96 15.41 67 15.44 67.04 15.47 67.08 15.49 67.14 15.53 67.2 15.57 67.28 15.61 67.36 15.65 67.45 15.7 67.55 15.74 67.66 15.78 67.78 15.83 67.9 15.87 68.04 15.92 68.18 15.97 68.33 16.02 68.49 16.07 68.65 16.12 68.83 16.17 69.01 16.22 69.2 16.27 69.4 16.33 69.61 16.39 69.83 16.44 70.06 16.5 70.29 16.56 70.53 16.62 70.78 16.68 71.04 16.74 71.31 16.8 71.58 16.86 71.87 16.93 72.16 16.99 72.46 17.06 72.77 17.13 73.09 17.2 73.41 17.26 73.72 17.33 74.02 17.4 74.32 17.48 74.62 17.55 74.91 17.62 75.19 17.7 75.46 17.77 75.73 17.85 76 17.93 76.25 18.01 76.51 18.08 76.75 18.16 76.99 18.25 77.22 18.33 77.45 18.41 77.67 18.5 77.89 18.58 78.1 18.67 78.3 18.76 78.5 18.84 78.69 18.93 78.87 19.02 79.05 19.12 79.22 19.21 79.39 19.3 79.55 19.39 79.71 19.49 79.86 19.59 80 19.68 80.13 19.78 80.27 19.88 80.39 19.98 80.51 20.09 80.63 20.2 80.74 20.3 80.85 20.42 80.95 20.53 81.05 20.65 81.15 20.77 81.24 20.89 81.33 21.01 81.41 21.14 81.49 21.27 81.57 21.4 81.64 21.54 81.71 21.67 81.78 21.81 81.84 21.95 81.9 22.1 81.95 22.24 82 22.39 82.04 22.54 82.09 22.7 82.12 22.85 82.16 23.01 82.19 23.17 82.21 23.34 82.23 23.5 82.25 23.67 82.26 23.84 82.27 24.02 82.28 24.19 82.28 24.37 82.28 24.57 82.27 24.76 82.26 24.95 82.24 25.14 82.21 25.33 82.18 25.52 82.15 25.7 82.11 25.88 82.06 26.07 82.01 26.25 81.95 26.43 81.89 26.6 81.82 26.78 81.75 26.95 81.67 27.12 81.58 27.29 81.49 27.46 81.4 27.62 81.3 27.79 81.19 27.95 81.08 28.11 80.96 28.27 80.84 28.43 80.71 28.59 80.57 28.74 80.44 28.89 80.29 29.04 80.14 29.19 79.98 29.34 79.82 29.48 79.66 29.63 79.48 29.77 79.31 29.91 79.12 30.04 78.94 30.17 78.74 30.3 78.55 30.42 78.34 30.54 78.13 30.65 77.92 30.76 77.7 30.86 77.48 30.96 77.25 31.05 77.01 31.14 76.77 31.23 76.53 31.31 76.28 31.39 76.02 31.46 75.76 31.53 75.5 31.59 75.23 31.65 74.95 31.71 74.67 31.76 74.38 31.8 74.09 31.84 73.79 31.88 73.49 31.91 73.18 31.94 72.87 31.97 72.55 31.99 72.22 32 71.89 32.01 71.56 32.02 71.22 32.02 70.91 32.02 70.61 32.02 70.31 32.01 70.01 31.99 69.72 31.98 69.43 31.96 69.14 31.93 68.86 31.9 68.59 31.87 68.32 31.84 68.05 31.8 67.78 31.76 67.52 31.71 67.27 31.66 67.02 31.61 66.77 31.55 66.52 31.49 66.28 31.42 66.05 31.36 65.82 31.28 65.59 31.21 65.37 31.13 65.15 31.04 64.93 30.96 64.72 30.87 64.51 30.77 64.31 30.67 64.11 30.57 63.91 30.47 63.72 30.36 63.53 30.25 63.35 30.13 63.17 30.01 62.99 29.89 62.82 29.76 62.66 29.64 62.49 29.51 62.33 29.37 62.18 29.24 62.03 29.1 61.88 28.96 61.73 28.82 61.59 28.67 61.46 28.52 61.33 28.37 61.2 28.22 61.08 28.06 60.96 27.9 60.84 27.74 60.73 27.58 60.62 27.41 60.51 27.24 60.41 27.07 60.32 26.89 60.22 26.71 60.13 26.53 60.05 26.35 59.97 26.16 59.89 25.98 59.82 25.78 59.75 25.59 59.68 25.4 59.62 25.2 59.56 24.99"/>
  <path class="cls-2" d="M50.19,18.14v-.16s-.01-.16-.01-.16v-.16s-.02-.16-.02-.16l-.02-.15-.02-.15-.02-.15-.02-.15-.03-.14-.03-.14-.03-.14-.03-.14-.04-.13-.04-.13-.04-.13-.04-.13-.05-.12-.05-.12-.05-.12-.05-.12-.06-.11-.06-.11-.06-.11-.06-.11-.07-.1-.07-.1-.07-.1-.07-.1-.08-.09-.08-.09-.08-.09-.08-.09-.09-.08-.09-.08-.09-.08-.09-.08-.09-.07-.09-.07-.09-.07-.09-.07-.1-.06-.1-.06-.1-.06-.1-.05-.1-.05-.1-.05-.1-.05-.1-.04-.11-.04-.11-.04-.11-.04-.11-.03-.11-.03-.11-.03-.11-.03-.11-.02-.11-.02-.12-.02h-.12s-.12-.03-.12-.03h-.12s-.12-.02-.12-.02h-.12s-.12,0-.12,0h-.13s-.13,0-.13,0h-.13s-.13.02-.13.02h-.13s-.12.03-.12.03l-.12.02-.12.02-.12.02-.12.03-.12.03-.12.03-.11.04-.11.04-.11.04-.11.04-.11.05-.11.05-.1.05-.1.06-.1.06-.1.06-.1.06-.1.07-.1.07-.09.07-.09.07-.09.08-.09.08-.09.08-.09.09-.09.09-.08.09-.08.09-.08.09-.08.1-.07.1-.07.1-.07.1-.07.1-.06.11-.06.11-.06.11-.05.11-.05.12-.05.12-.05.12-.04.12-.04.12-.04.13-.04.13-.03.13-.03.13-.03.13-.02.14-.02.14-.02.14-.02.14v.14s-.02.15-.02.15v.15s-.01.15-.01.15v.15s0,.15,0,.15h9.62ZM49.82,24.25l6.42,1.01-.08.21-.08.2-.08.2-.09.2-.09.19-.09.19-.1.19-.1.18-.1.18-.1.18-.11.17-.11.17-.11.17-.12.16-.12.16-.12.16-.12.16-.13.15-.13.15-.13.15-.13.14-.14.14-.14.14-.14.13-.15.13-.15.13-.15.13-.15.12-.16.12-.16.12-.16.11-.17.11-.17.11-.17.1-.17.1-.18.1-.18.09-.18.09-.18.09-.19.08-.19.08-.19.08-.19.07-.2.07-.2.07-.2.06-.2.06-.21.06-.21.05-.21.05-.22.05-.22.04-.22.04-.22.03-.23.03-.23.03-.23.03-.23.02-.24.02-.24.02h-.24s-.24.02-.24.02h-.25s-.25,0-.25,0h-.39s-.39-.01-.39-.01l-.38-.02-.37-.03-.37-.03-.36-.04-.35-.05-.35-.06-.34-.06-.34-.07-.33-.08-.32-.09-.32-.09-.31-.1-.3-.11-.3-.12-.29-.12-.28-.13-.28-.14-.27-.15-.26-.16-.26-.16-.25-.17-.25-.18-.24-.19-.23-.19-.23-.2-.22-.21-.21-.22-.21-.22-.2-.23-.19-.24-.15-.2-.14-.2-.14-.2-.13-.21-.13-.21-.12-.21-.12-.22-.12-.22-.11-.22-.11-.22-.1-.23-.1-.23-.09-.23-.09-.24-.08-.24-.08-.24-.07-.25-.07-.25-.06-.25-.06-.26-.05-.26-.05-.26-.04-.27-.04-.27-.04-.27-.03-.28-.03-.28-.02-.28-.02-.29v-.29s-.02-.29-.02-.29v-.29s0-.35,0-.35v-.35s.02-.34.02-.34l.02-.34.03-.33.03-.33.04-.32.05-.32.05-.31.06-.31.07-.3.07-.3.08-.29.08-.29.09-.28.1-.28.1-.28.11-.27.11-.27.12-.26.13-.26.13-.25.14-.25.15-.24.15-.24.16-.23.16-.23.17-.22.18-.22.18-.21.19-.21.19-.2.2-.2.2-.19.21-.19.21-.18.21-.17.22-.17.22-.16.22-.15.23-.15.23-.14.23-.13.23-.13.24-.12.24-.12.25-.11.25-.1.25-.1.25-.09.26-.08.26-.08.26-.07.27-.07.27-.06.27-.05.28-.05.28-.04.28-.04.29-.03.29-.02.29-.02h.3s.3-.01.3-.01h.34s.33.01.33.01l.33.02.32.02.32.03.31.04.31.04.31.05.3.06.3.06.29.07.29.08.28.08.28.09.27.1.27.1.27.11.26.12.26.12.25.13.25.14.24.14.24.15.23.15.23.16.23.17.22.17.22.18.21.19.21.19.2.2.2.21.19.21.19.22.18.23.17.24.17.24.16.25.15.26.15.26.14.27.14.28.13.28.12.29.12.3.11.3.1.31.1.32.09.33.08.33.08.34.07.35.07.35.06.36.05.37.05.37.04.38.03.39.03.4.02.4v.41s.02.42.02.42v.42s0,.43,0,.43h-16.13v.17s.01.16.01.16v.16s.03.16.03.16l.02.16.02.15.02.15.02.15.03.15.03.15.03.14.04.14.04.14.04.14.04.13.05.13.05.13.05.13.06.12.06.12.06.12.06.12.07.12.07.11.07.11.08.11.08.11.08.1.08.1.09.1.09.1.09.09.09.09.1.09.1.09.1.08.1.08.1.08.1.07.1.07.11.07.11.07.11.06.11.06.11.06.11.05.11.05.12.05.12.05.12.04.12.04.12.04.12.03.12.03.13.03.13.02.13.02.13.02.13.02h.13s.13.02.13.02h.14s.14.01.14.01h.14s.09,0,.09,0h.09s.09,0,.09,0h.09s.09-.01.09-.01h.09s.09-.02.09-.02h.09s.09-.02.09-.02h.09s.08-.03.08-.03l.08-.02.08-.02.08-.02.08-.02.08-.02.08-.03.08-.03.08-.03.08-.03.08-.03.07-.03.07-.03.07-.04.07-.04.07-.04.07-.04.07-.04.07-.04.07-.04.07-.05.07-.05.06-.05.06-.05.06-.05.06-.06.06-.06.06-.06.06-.06.06-.06.06-.06.06-.07.05-.07.05-.07.05-.07.05-.07.05-.07.05-.08.05-.08.05-.08.05-.08.05-.08.04-.09.04-.09.04-.09.04-.09.04-.09.04-.1.04-.1.04-.1.04-.1.03-.1.03-.1.03-.11Z"/>
  <polygon class="cls-2" points="0 31.51 0 3.28 9.09 3.28 14.55 22.54 19.94 3.28 29.05 3.28 29.05 31.51 23.41 31.51 23.41 9.29 17.44 31.51 11.59 31.51 5.64 9.29 5.64 31.51 0 31.51"/>
  <rect class="cls-3" x="256.83" y=".74" width="6.43" height="6.43"/>
  <path class="cls-2" d="M296.5,0c.85,0,1.67.22,2.48.65.81.43,1.44,1.06,1.88,1.86.45.81.68,1.65.68,2.53s-.22,1.7-.67,2.5c-.44.8-1.06,1.42-1.86,1.87-.8.44-1.64.66-2.51.66s-1.71-.22-2.51-.66c-.8-.44-1.42-1.06-1.87-1.87-.45-.8-.67-1.64-.67-2.5s.23-1.72.68-2.53c.45-.81,1.08-1.43,1.89-1.86.81-.43,1.63-.65,2.48-.65ZM296.5.83c-.71,0-1.4.18-2.07.54-.67.36-1.2.88-1.57,1.56-.38.67-.57,1.38-.57,2.11s.19,1.42.56,2.09c.37.67.89,1.18,1.56,1.56.67.37,1.37.56,2.09.56s1.42-.19,2.09-.56c.67-.37,1.19-.89,1.56-1.56.37-.67.55-1.36.55-2.09s-.19-1.43-.57-2.11c-.38-.68-.9-1.19-1.57-1.56-.67-.36-1.36-.54-2.06-.54ZM294.29,7.82h.88v-2.3h.52c.31,0,.54.06.7.18.23.17.54.59.92,1.26l.48.85h1.06l-.66-1.06c-.32-.5-.58-.86-.8-1.07-.11-.11-.27-.21-.46-.29.47-.04.85-.2,1.13-.49.28-.29.43-.64.43-1.03,0-.28-.08-.54-.25-.79-.17-.25-.4-.42-.68-.52-.29-.1-.75-.15-1.39-.15h-1.87v5.41ZM295.16,4.77h1.06c.51,0,.86-.08,1.04-.23.18-.15.28-.35.28-.6,0-.16-.05-.3-.14-.43-.09-.13-.21-.22-.37-.28-.16-.06-.45-.09-.88-.09h-1v1.63Z"/>
</svg>